<svg xmlns="http://www.w3.org/2000/svg" preserveAspectRatio="none" viewBox="0 0 960 540">
<path d="M517 540L537.8 527.2C558.7 514.3 600.3 488.7 626 463C651.7 437.3 661.3 411.7 667.8 386C674.3 360.3 677.7 334.7 672.8 308.8C668 283 655 257 659.7 231.2C664.3 205.3 686.7 179.7 675.5 154C664.3 128.3 619.7 102.7 583 77C546.3 51.3 517.7 25.7 503.3 12.8L489 0L960 0L960 12.8C960 25.7 960 51.3 960 77C960 102.7 960 128.3 960 154C960 179.7 960 205.3 960 231.2C960 257 960 283 960 308.8C960 334.7 960 360.3 960 386C960 411.7 960 437.3 960 463C960 488.7 960 514.3 960 527.2L960 540Z" fill="#7f8c8d"></path><path d="M306 540L309.2 527.2C312.3 514.3 318.7 488.7 305.8 463C293 437.3 261 411.7 249.8 386C238.7 360.3 248.3 334.7 234 308.8C219.7 283 181.3 257 181.3 231.2C181.3 205.3 219.7 179.7 243.7 154C267.7 128.3 277.3 102.7 258.2 77C239 51.3 191 25.7 167 12.8L143 0L490 0L504.3 12.8C518.7 25.7 547.3 51.3 584 77C620.7 102.7 665.3 128.3 676.5 154C687.7 179.7 665.3 205.3 660.7 231.2C656 257 669 283 673.8 308.8C678.7 334.7 675.3 360.3 668.8 386C662.3 411.7 652.7 437.3 627 463C601.3 488.7 559.7 514.3 538.8 527.2L518 540Z" fill="#212121"></path><path d="M0 540L0 527.2C0 514.3 0 488.7 0 463C0 437.3 0 411.7 0 386C0 360.3 0 334.7 0 308.8C0 283 0 257 0 231.2C0 205.3 0 179.7 0 154C0 128.3 0 102.7 0 77C0 51.3 0 25.7 0 12.8L0 0L144 0L168 12.8C192 25.7 240 51.3 259.2 77C278.3 102.7 268.7 128.3 244.7 154C220.7 179.7 182.3 205.3 182.3 231.2C182.3 257 220.7 283 235 308.8C249.3 334.7 239.7 360.3 250.8 386C262 411.7 294 437.3 306.8 463C319.7 488.7 313.3 514.3 310.2 527.2L307 540Z" fill="#fcbf49"></path>
</svg>