<svg width="793.701" height="793.701" viewBox="0 0 793.70135 793.70135" xmlns:xlink="http://www.w3.org/1999/xlink" xmlns="http://www.w3.org/2000/svg"><defs><linearGradient x2="1" gradientUnits="userSpaceOnUse" gradientTransform="matrix(595.28 0 0 -595.28 -.002 297.638)" id="c"><stop offset="0" stop-color="#0e253b"/><stop offset=".801" stop-color="#08101c"/><stop offset="1" stop-color="#08101c"/></linearGradient><linearGradient x2="1" gradientUnits="userSpaceOnUse" gradientTransform="matrix(-253.153 725.672 725.672 253.153 484.118 -94.171)" id="d"><stop offset="0" stop-color="#b99c5b"/><stop offset=".161" stop-color="#b99c5b"/><stop offset=".409" stop-color="#564317"/><stop offset="1" stop-color="#322e1e"/></linearGradient><linearGradient x2="1" gradientUnits="userSpaceOnUse" gradientTransform="matrix(-60.4 173.139 173.139 60.4 504.704 343.582)"><stop offset="0" stop-color="#b99c5b"/><stop offset=".161" stop-color="#b99c5b"/><stop offset=".409" stop-color="#564317"/><stop offset="1" stop-color="#322e1e"/></linearGradient><linearGradient x2="1" gradientUnits="userSpaceOnUse" gradientTransform="matrix(-74.311 213.014 213.014 74.311 136.568 143.016)"><stop offset="0" stop-color="#b99c5b"/><stop offset=".161" stop-color="#b99c5b"/><stop offset=".409" stop-color="#564317"/><stop offset="1" stop-color="#322e1e"/></linearGradient><clipPath id="e"><path d="M0 0h595.276v595.276h-595.276z"/></clipPath><clipPath id="f"><path d="M-8.04 603.316h625.44v-625.44h-625.44z"/></clipPath><clipPath id="a"><path d="M-8.04 603.316h625.44v-625.44h-625.44z"/></clipPath><mask maskUnits="userSpaceOnUse" x="0" y="0" width="1" height="1"><image width="1" height="1" preserveAspectRatio="none" transform="matrix(625.44 0 0 -625.44 -8.04 603.316)" xlink:href="bg/Abstract%2001_img0.png" image-rendering="optimizeSpeed" clip-path="url(#a)"/></mask><mask maskUnits="userSpaceOnUse" x="0" y="0" width="1" height="1" id="g"><image width="1" height="1" preserveAspectRatio="none" xlink:href="bg/Abstract%2001_img1.png" image-rendering="optimizeSpeed"/></mask><linearGradient x2="1" gradientUnits="userSpaceOnUse" gradientTransform="matrix(592.343 -418.067 -418.067 -592.343 41.727 516.432)" id="h"><stop offset="0" stop-color="#0c1c2e"/><stop offset="1" stop-color="#08101c"/></linearGradient><linearGradient x2="1" gradientUnits="userSpaceOnUse" gradientTransform="matrix(174.159 -212.229 -212.229 -174.159 -46.822 220.507)"><stop offset="0" stop-color="#b99c5b"/><stop offset=".161" stop-color="#b99c5b"/><stop offset=".409" stop-color="#564317"/><stop offset="1" stop-color="#322e1e"/></linearGradient><linearGradient x2="1" gradientUnits="userSpaceOnUse" gradientTransform="matrix(1000.119 -1218.738 -1218.738 -1000.119 -149.815 795.314)" id="i"><stop offset="0" stop-color="#b99c5b"/><stop offset=".161" stop-color="#b99c5b"/><stop offset=".409" stop-color="#564317"/><stop offset="1" stop-color="#322e1e"/></linearGradient><clipPath><path d="M0 0h595.276v595.276h-595.276z"/></clipPath><linearGradient x2="1" gradientUnits="userSpaceOnUse" gradientTransform="matrix(251.028 -305.901 -305.901 -251.028 433.102 648.96)" id="j"><stop offset="0" stop-color="#b99c5b"/><stop offset=".161" stop-color="#b99c5b"/><stop offset=".409" stop-color="#564317"/><stop offset="1" stop-color="#322e1e"/></linearGradient><linearGradient x2="1" gradientUnits="userSpaceOnUse" gradientTransform="matrix(238.637 -290.802 -290.802 -238.637 58.785 137.303)" id="k"><stop offset="0" stop-color="#b99c5b"/><stop offset=".161" stop-color="#b99c5b"/><stop offset=".409" stop-color="#564317"/><stop offset="1" stop-color="#322e1e"/></linearGradient><clipPath id="l"><path d="M0 0h595.276v595.276h-595.276z"/></clipPath><clipPath id="m"><path d="M-8.04 603.316h625.44v-625.44h-625.44z"/></clipPath><clipPath id="b"><path d="M-8.04 603.316h625.44v-625.44h-625.44z"/></clipPath><mask maskUnits="userSpaceOnUse" x="0" y="0" width="1" height="1"><image width="1" height="1" preserveAspectRatio="none" transform="matrix(625.44 0 0 -625.44 -8.04 603.316)" xlink:href="bg/Abstract%2001_img3.png" image-rendering="optimizeSpeed" clip-path="url(#b)"/></mask><mask maskUnits="userSpaceOnUse" x="0" y="0" width="1" height="1" id="n"><image width="1" height="1" preserveAspectRatio="none" xlink:href="bg/Abstract%2001_img4.png" image-rendering="optimizeSpeed"/></mask><linearGradient x2="1" gradientUnits="userSpaceOnUse" gradientTransform="matrix(356.529 -438.624 -438.624 -356.529 310.637 243.47)" id="o"><stop offset="0" stop-color="#0c1c2e"/><stop offset="1" stop-color="#08101c"/></linearGradient><clipPath><path d="M0 0h595.276v595.276h-595.276z"/></clipPath><linearGradient x2="1" gradientUnits="userSpaceOnUse" gradientTransform="matrix(164.992 -374.981 -374.981 -164.992 297.086 670.705)"><stop offset="0" stop-color="#b99c5b"/><stop offset=".161" stop-color="#b99c5b"/><stop offset=".409" stop-color="#564317"/><stop offset="1" stop-color="#322e1e"/></linearGradient></defs><g><path d="M0 793.701h793.701v-793.701h-793.701z" fill="url(#c)"/><path d="M491.591 757.152l163.389-89.731-198.735-160.165z" fill="url(#d)"/><g clip-path="url(#e)"><g clip-path="url(#f)" opacity=".75"><image width="1" height="1" preserveAspectRatio="none" transform="matrix(833.712 0 0 833.712 -10.717 -10.52)" xlink:href="bg/Abstract%2001_img2.png" mask="url(#g)" image-rendering="optimizeSpeed"/></g></g><path d="M737.386.198c0 65.945-53.459 119.399-119.403 119.399s-119.402-53.455-119.402-119.399h-39.435c3.515 13.093 5.401 26.853 5.401 41.056 0 87.216-70.702 157.918-157.919 157.918-87.216 0-157.918-70.702-157.918-157.918 0-14.203 1.886-27.964 5.403-41.056h-154.112v76.002c23.205 8.934 39.681 31.427 39.681 57.779 0 26.353-16.476 48.845-39.681 57.779v126.008c3.002-.296 6.044-.453 9.123-.453 50.814 0 92.006 41.192 92.006 92.005 0 50.814-41.192 92.006-92.006 92.006-3.079 0-6.121-.159-9.123-.453v191.056c9.378-2.369 19.195-3.631 29.307-3.631 61.207 0 111.651 46.055 118.581 105.404h109.445c0-51.82 42.008-93.823 93.826-93.823 51.818 0 93.827 42.003 93.827 93.823h277.449c10.4-31.737 37.584-55.85 71.068-61.861v-461.517c-8.574 4.49-18.322 7.042-28.67 7.042-34.19 0-61.906-27.716-61.906-61.905 0-34.19 27.716-61.906 61.906-61.906 10.348 0 20.096 2.553 28.67 7.042v-160.4zm-655.788 104.644c0-10.785 8.746-19.528 19.531-19.528 10.785 0 19.531 8.743 19.531 19.528 0 10.787-8.746 19.53-19.531 19.53-10.785 0-19.531-8.743-19.531-19.53m-22.844 140.899c0-34.189 27.714-61.906 61.906-61.906 34.187 0 61.903 27.717 61.903 61.906 0 34.19-27.716 61.906-61.903 61.906-34.191 0-61.906-27.716-61.906-61.906m406.568-19.53c0-10.785 8.744-19.53 19.53-19.53 10.787 0 19.53 8.744 19.53 19.53 0 10.785-8.743 19.53-19.53 19.53-10.785 0-19.53-8.744-19.53-19.53m71.08 81.436c0-34.19 27.714-61.906 61.905-61.906 34.189 0 61.906 27.716 61.906 61.906s-27.717 61.906-61.906 61.906c-34.19 0-61.905-27.716-61.905-61.906m-319.076 61.906c0-65.945 53.459-119.403 119.402-119.403 65.946 0 119.403 53.459 119.403 119.403s-53.457 119.401-119.403 119.401c-65.944 0-119.402-53.457-119.402-119.401m500.531 39.765c0-10.785 8.743-19.53 19.53-19.53s19.528 8.744 19.528 19.53c0 10.787-8.742 19.53-19.528 19.53-10.787 0-19.53-8.743-19.53-19.53m-296.309 175.567c0-87.216 70.702-157.918 157.919-157.918 87.217 0 157.919 70.702 157.919 157.918 0 87.217-70.702 157.919-157.919 157.919-87.217 0-157.919-70.702-157.919-157.919m-300.887-83.56c0-24.175 19.596-43.773 43.773-43.773 24.175 0 43.773 19.598 43.773 43.773 0 24.177-19.598 43.773-43.773 43.773-24.177 0-43.773-19.596-43.773-43.773m124.062 100.515c0-34.19 27.716-61.906 61.905-61.906s61.906 27.716 61.906 61.906-27.717 61.905-61.906 61.905-61.905-27.714-61.905-61.905m-115.543 61.905c0-10.785 8.744-19.531 19.53-19.531 10.785 0 19.53 8.746 19.53 19.531 0 10.785-8.744 19.53-19.53 19.53-10.785 0-19.53-8.744-19.53-19.53" fill="url(#h)"/><path d="M134.076.198l-134.076 153.78v90.092l451.023 152.879-212.667-396.751z" fill="url(#i)"/><path d="M655.46.198l-54.198 149.487 192.241-97.902v-51.584z" fill="url(#j)"/><path d="M58.755 755.746l43.532 37.955h101.203l47.857-141.187z" fill="url(#k)"/><g clip-path="url(#l)"><g clip-path="url(#m)" opacity=".75"><image width="1" height="1" preserveAspectRatio="none" transform="matrix(833.712 0 0 833.712 -10.717 -10.52)" xlink:href="bg/Abstract%2001_img5.png" mask="url(#n)" image-rendering="optimizeSpeed"/></g></g><path d="M536.171.198c0 51.819-42.008 93.823-93.827 93.823-51.819 0-93.826-42.004-93.826-93.823h-277.449c-10.4 31.739-37.583 55.85-71.069 61.861v461.518c8.574-4.491 18.322-7.044 28.67-7.044 34.189 0 61.906 27.717 61.906 61.906s-27.717 61.906-61.906 61.906c-10.348 0-20.096-2.553-28.67-7.044v160.4h56.117c0-65.945 53.459-119.399 119.403-119.399s119.402 53.455 119.402 119.399h39.435c-3.515-13.093-5.401-26.853-5.401-41.056 0-87.216 70.704-157.919 157.918-157.919 87.217 0 157.919 70.704 157.919 157.919 0 14.203-1.886 27.964-5.401 41.056h154.111v-76.002c-23.205-8.934-39.681-31.427-39.681-57.779 0-26.352 16.476-48.845 39.681-57.779v-126.008c-3.002.296-6.045.453-9.123.453-50.814 0-92.006-41.192-92.006-92.005 0-50.814 41.192-92.006 92.006-92.006 3.078 0 6.121.159 9.123.453v-191.055c-9.379 2.366-19.194 3.63-29.307 3.63-61.207 0-111.649-46.056-118.58-105.404zm-480.055 208.814c0-87.216 70.704-157.918 157.919-157.918 87.216 0 157.919 70.702 157.919 157.918 0 87.217-70.704 157.919-157.919 157.919-87.216 0-157.919-70.702-157.919-157.919m569.148-78.858c0-10.787 8.743-19.53 19.528-19.53 10.787 0 19.53 8.743 19.53 19.53 0 10.785-8.743 19.53-19.53 19.53-10.785 0-19.528-8.744-19.528-19.53m-200.295 61.905c0-34.189 27.716-61.905 61.905-61.905s61.907 27.716 61.907 61.905c0 34.19-27.718 61.906-61.907 61.906-34.189 0-61.905-27.716-61.905-61.906m160.327 100.515c0-24.175 19.598-43.773 43.774-43.773 24.174 0 43.773 19.598 43.773 43.773 0 24.175-19.599 43.774-43.773 43.774-24.177 0-43.774-19.599-43.774-43.774m-247.923 131.771c0-65.944 53.459-119.402 119.402-119.402 65.942 0 119.402 53.459 119.402 119.402 0 65.945-53.46 119.403-119.402 119.403-65.944 0-119.402-53.459-119.402-119.403m-300.785-39.765c0-10.787 8.743-19.53 19.528-19.53 10.787 0 19.53 8.743 19.53 19.53 0 10.785-8.743 19.53-19.53 19.53-10.785 0-19.528-8.744-19.528-19.53m96.704 101.671c0-34.19 27.714-61.906 61.905-61.906 34.19 0 61.906 27.716 61.906 61.906 0 34.189-27.716 61.906-61.906 61.906s-61.905-27.717-61.905-61.906m477.647 61.906c0-34.189 27.716-61.906 61.905-61.906 34.19 0 61.907 27.717 61.907 61.906s-27.717 61.906-61.907 61.906c-34.189 0-61.905-27.717-61.905-61.906m-321.818 19.528c0-10.784 8.744-19.528 19.53-19.528 10.787 0 19.53 8.744 19.53 19.528 0 10.787-8.743 19.531-19.53 19.531-10.785 0-19.53-8.744-19.53-19.531m383.723 121.371c0-10.787 8.743-19.53 19.53-19.53s19.531 8.743 19.531 19.53-8.744 19.53-19.531 19.53c-10.787 0-19.53-8.743-19.53-19.53" fill="url(#o)"/></g></svg>