<svg width="0" height="0" display="none" xmlns="http://www.w3.org/2000/svg"> 
              
  <!-- icons -->

  <symbol id="icon-time" viewBox="0 0 24 24" fill="none">
  <path d="M12 7V12L15 15M21 12C21 16.9706 16.9706 21 12 21C7.02944 21 3 16.9706 3 12C3 7.02944 7.02944 3 12 3C16.9706 3 21 7.02944 21 12Z" stroke="currentColor" stroke-width="1.5" stroke-linecap="round" stroke-linejoin="round"/>
  </symbol>

  <symbol id="icon-color" viewBox="0 0 24 24" stroke="currentColor" stroke-width="1" stroke-linecap="square" stroke-linejoin="miter" fill="none" color="currentColor">
  <path d="M12 19a7 7 0 1 0 0-14 7 7 0 0 0 0 14z"/><path d="M15.899 12.899a4 4 0 0 1-4.797-4.797A4.002 4.002 0 0 0 12 16c1.9 0 3.49-1.325 3.899-3.101z"/><path d="M12 5V3M12 21v-2"/><path d="M5 12H2h3zM22 12h-3 3zM16.95 7.05L19.07 4.93 16.95 7.05zM4.929 19.071L7.05 16.95 4.93 19.07zM16.95 16.95l2.121 2.121-2.121-2.121zM4.929 4.929L7.05 7.05 4.93 4.93z" /> 
  </symbol>

  <symbol id="p-play" viewBox="0 0 24 24" fill="none" >
  <path d="M8 18V6L18 12L11.3333 16" stroke="currentColor" stroke-width="1.1" stroke-linecap="round" stroke-linejoin="round"/> 
  </symbol>   

  <symbol id="p-stop" viewBox="0 0 24 24" fill="none">
  <path d="M9 6H6V18H18V15M13 6H18V11" stroke="currentColor" stroke-width="1.5" stroke-linecap="round" stroke-linejoin="round"/>
  </symbol>

  <!-- <symbol id="icon-prev" viewBox="0 0 24 24" fill="none">
  <path d="M12 13.8L19 18L19 6L15 8.4M6 14L3 12L12 6L12 18L9 16" stroke="currentColor" stroke-width="1.1  " stroke-linecap="round" stroke-linejoin="round"/>
  </symbol> -->

  <symbol id="icon-prev" viewBox="0 0 24 24" stroke="currentColor" stroke-width="1" stroke-linecap="square" stroke-linejoin="miter" fill="none" color="currentColor">
  <path d="M7 11.5L18 18V5z"/><path d="M6 18V5"/>
  </symbol>

  <!-- <symbol id="icon-next" viewBox="0 0 24 24" fill="none" >
  <path d="M10 13.8L3 18L3 6L7 8.4M16 14L19 12L10 6L10 18L13 16" stroke="currentColor" stroke-width="1.1" stroke-linecap="round" stroke-linejoin="round"/>
  </symbol>  -->

  <symbol id="icon-next" viewBox="0 0 24 24" stroke="currentColor" stroke-width="1" stroke-linecap="square" stroke-linejoin="miter" fill="none" color="currentColor"><path d="M17 11.5L6 18V5z"/><path d="M18 18V5"/>
  </symbol> 

</svg>