<svg width="0" height="0" display="none" xmlns="http://www.w3.org/2000/svg"> 
              
  <!-- icons -->

  <symbol id="icon-fav" viewBox="0 0 24 24" >
    <path d="M12 9V15M9 11V13M6 10V14M3 11V13M15 6V18M18 10V14M21 11V13" stroke="currentColor" stroke-width="2" fill="none" stroke-linecap="square" stroke-linejoin="bevel" />
  </symbol>

  <symbol id="icon-prev" viewBox="0 0 24 24" >
    <path d="M19 18L18.6141 18.6431C18.8458 18.7821 19.1344 18.7858 19.3695 18.6526C19.6047 18.5195 19.75 18.2702 19.75 18L19 18ZM19 6L19.75 6C19.75 5.7298 19.6047 5.48048 19.3695 5.34735C19.1344 5.21422 18.8458 5.21786 18.6141 5.35688L19 6ZM9 12L8.61413 11.3569C8.38823 11.4924 8.25 11.7366 8.25 12C8.25 12.2634 8.38823 12.5076 8.61413 12.6431L9 12ZM4.25 18C4.25 18.4142 4.58579 18.75 5 18.75C5.41421 18.75 5.75 18.4142 5.75 18L4.25 18ZM5.75 6C5.75 5.58579 5.41421 5.25 5 5.25C4.58579 5.25 4.25 5.58579 4.25 6L5.75 6ZM18.25 6L18.25 18L19.75 18L19.75 6L18.25 6ZM9.38587 12.6431L19.3859 6.64312L18.6141 5.35688L8.61413 11.3569L9.38587 12.6431ZM19.3859 17.3569L9.38587 11.3569L8.61413 12.6431L18.6141 18.6431L19.3859 17.3569ZM5.75 18L5.75 6L4.25 6L4.25 18L5.75 18Z" fill="currentColor" />
  </symbol>

  <symbol id="p-play" viewBox="0 0 24 24" >
    <path d="M8 6V18L18 12L8 6Z" stroke="currentColor" stroke-width="1.5" stroke-linejoin="round" fill="none" />
    </symbol>   

    <symbol id="p-stop" viewBox="0 0 24 24" >
    <path d="M6 6H18V18H6V6Z" stroke="currentColor" stroke-width="1.5" stroke-linecap="round" stroke-linejoin="round" fill="none" />
    </symbol>   

  <symbol id="icon-next" viewBox="0 0 24 24" >
   <path d="M5 6L5.38587 5.35688C5.15417 5.21786 4.86561 5.21422 4.63048 5.34735C4.39534 5.48048 4.25 5.7298 4.25 6H5ZM5 18H4.25C4.25 18.2702 4.39534 18.5195 4.63048 18.6526C4.86561 18.7858 5.15417 18.7821 5.38587 18.6431L5 18ZM15 12L15.3859 12.6431C15.6118 12.5076 15.75 12.2634 15.75 12C15.75 11.7366 15.6118 11.4924 15.3859 11.3569L15 12ZM19.75 6C19.75 5.58579 19.4142 5.25 19 5.25C18.5858 5.25 18.25 5.58579 18.25 6H19.75ZM18.25 18C18.25 18.4142 18.5858 18.75 19 18.75C19.4142 18.75 19.75 18.4142 19.75 18H18.25ZM5.75 18V6H4.25V18H5.75ZM14.6141 11.3569L4.61413 17.3569L5.38587 18.6431L15.3859 12.6431L14.6141 11.3569ZM4.61413 6.64312L14.6141 12.6431L15.3859 11.3569L5.38587 5.35688L4.61413 6.64312ZM18.25 6V18H19.75V6H18.25Z" fill="currentColor" />
  </symbol>

</svg>