<svg xmlns="http://www.w3.org/2000/svg" preserveAspectRatio="none" viewBox="0 0 3840 2160">
  <rect x="0" y="0" width="3840" height="2160" fill="#dbeef2"></rect><defs><linearGradient x1="43.8%" y1="100%" x2="100%" y2="0%"><stop offset="14.444444444444446%" stop-color="#ffffff" stop-opacity="1"></stop><stop offset="85.55555555555554%" stop-color="#ffffff" stop-opacity="1"></stop></linearGradient></defs><defs><linearGradient x1="43.8%" y1="100%" x2="100%" y2="0%"><stop offset="14.444444444444446%" stop-color="#ffffff" stop-opacity="1"></stop><stop offset="85.55555555555554%" stop-color="#dbeef2" stop-opacity="1"></stop></linearGradient></defs><defs><linearGradient x1="0%" y1="100%" x2="56.3%" y2="0%"><stop offset="14.444444444444446%" stop-color="#ffffff" stop-opacity="1"></stop><stop offset="85.55555555555554%" stop-color="#ffffff" stop-opacity="1"></stop></linearGradient></defs><defs><linearGradient x1="0%" y1="100%" x2="56.3%" y2="0%"><stop offset="14.444444444444446%" stop-color="#dbeef2" stop-opacity="1"></stop><stop offset="85.55555555555554%" stop-color="#ffffff" stop-opacity="1"></stop></linearGradient></defs><g transform="translate(3840, 2160)"><path d="M-1585 0C-1591.8 -204.2 -1598.6 -408.4 -1583.5 -655.9C-1568.4 -903.4 -1531.5 -1194.3 -1374.6 -1374.6C-1217.7 -1555 -941 -1624.9 -691.9 -1670.4C-442.8 -1715.9 -221.4 -1736.9 0 -1758L0 0Z" fill="#edf6f8"></path><path d="M-792.5 0C-795.9 -102.1 -799.3 -204.2 -791.8 -328C-784.2 -451.7 -765.7 -597.1 -687.3 -687.3C-608.9 -777.5 -470.5 -812.4 -345.9 -835.2C-221.4 -857.9 -110.7 -868.5 0 -879L0 0Z" fill="#ffffff"></path></g><g transform="translate(0, 0)"><path d="M1900 0C1903.7 265.1 1907.4 530.1 1796 743.9C1684.6 957.7 1458.1 1120.3 1248.8 1248.8C1039.4 1377.2 847 1471.5 641.8 1549.3C436.5 1627.2 218.2 1688.6 0 1750L0 0Z" fill="#edf6f8"></path><path d="M950 0C951.9 132.5 953.7 265.1 898 372C842.3 478.9 729.1 560.2 624.4 624.4C519.7 688.6 423.5 735.7 320.9 774.7C218.2 813.6 109.1 844.3 0 875L0 0Z" fill="#ffffff"></path></g>
</svg>